<svg height="512" viewBox="0 0 512 512" width="512" xmlns="http://www.w3.org/2000/svg"><g><g fill="#57a4ff"><path d="m476 40h-440a19.994 19.994 0 0 0 -20 20v28h480v-28a19.994 19.994 0 0 0 -20-20z"/><path d="m152 440v32h208v-144h-208zm104-40a16 16 0 1 1 -16 16 16 16 0 0 1 16-16z"/></g><g fill="#004fac"><path d="m476 32h-440a28.031 28.031 0 0 0 -28 28v360a28.031 28.031 0 0 0 28 28h108v24a8 8 0 0 0 8 8h208a8 8 0 0 0 8-8v-24h108a28.031 28.031 0 0 0 28-28v-360a28.031 28.031 0 0 0 -28-28zm-124 432h-192v-128h192zm-96-288a64.072 64.072 0 0 0 -64 64v80h-8v-80a72 72 0 0 1 144 0v80h-8v-80a64.072 64.072 0 0 0 -64-64zm48 64v80h-96v-80a48 48 0 0 1 96 0zm184 180a12.01 12.01 0 0 1 -12 12h-108v-104a8 8 0 0 0 -8-8h-16v-80a88 88 0 0 0 -176 0v80h-16a8 8 0 0 0 -8 8v104h-108a12.01 12.01 0 0 1 -12-12v-324h464zm0-340h-464v-20a12.01 12.01 0 0 1 12-12h440a12.01 12.01 0 0 1 12 12z"/><path d="m40 72h8a8 8 0 0 0 0-16h-8a8 8 0 0 0 0 16z"/><path d="m72 72h8a8 8 0 0 0 0-16h-8a8 8 0 0 0 0 16z"/><path d="m104 72h8a8 8 0 0 0 0-16h-8a8 8 0 0 0 0 16z"/><path d="m264 393.376v-25.376a8 8 0 0 0 -16 0v25.376a24 24 0 1 0 16 0zm-8 30.624a8 8 0 1 1 8-8 8.009 8.009 0 0 1 -8 8z"/></g></g></svg>